<svg width="18" height="18" viewBox="0 0 18 18" fill="none" xmlns="http://www.w3.org/2000/svg">
  <path d="M9 9.75C10.2426 9.75 11.25 8.74264 11.25 7.5C11.25 6.25736 10.2426 5.25 9 5.25C7.75736 5.25 6.75 6.25736 6.75 7.5C6.75 8.74264 7.75736 9.75 9 9.75Z" stroke="#F26522" stroke-width="1.5" stroke-linecap="round" stroke-linejoin="round"/>
  <path d="M9 1.5C7.60761 1.5 6.27226 2.05312 5.28769 3.03769C4.30312 4.02226 3.75 5.35761 3.75 6.75C3.75 8.4375 4.3125 9.75 6 11.625L9 15L12 11.625C13.6875 9.75 14.25 8.4375 14.25 6.75C14.25 5.35761 13.6969 4.02226 12.7123 3.03769C11.7277 2.05312 10.3924 1.5 9 1.5Z" stroke="#F26522" stroke-width="1.5" stroke-linecap="round" stroke-linejoin="round"/>
</svg>
